<?xml version="1.0" ?>
<!DOCTYPE svg  PUBLIC '-//W3C//DTD SVG 1.1//EN'  'http://www.w3.org/Graphics/SVG/1.1/DTD/svg11.dtd'>
<!-- Uploaded to: SVG Repo, www.svgrepo.com, Generator: SVG Repo Mixer Tools -->
<svg width="800px" height="800px" viewBox="0 0 32 32" enable-background="new 0 0 32 32" id="_x3C_Layer_x3E_" version="1.1" xml:space="preserve" xmlns="http://www.w3.org/2000/svg" xmlns:xlink="http://www.w3.org/1999/xlink">
<g id="up_x2C__escalator">
<g id="XMLID_581_">
<circle cx="11.5" cy="5" fill="none" id="XMLID_582_" r="2.5" stroke="#263238" stroke-linecap="round" stroke-linejoin="round" stroke-miterlimit="10"/>
<path d="    M10.55,19.508L7.61,13.03C6.85,11.38,8.06,9.5,9.88,9.5h3.62c1.1,0,2,0.9,2,2V12" fill="none" id="XMLID_583_" stroke="#263238" stroke-linecap="round" stroke-linejoin="round" stroke-miterlimit="10"/>
<path d="    M5,29.5c-1.93,0-3.5-1.57-3.5-3.5s1.57-3.5,3.5-3.5h2.55L20.53,9.52C21.18,8.87,22.07,8.5,23,8.5h4c1.93,0,3.5,1.57,3.5,3.5    s-1.57,3.5-3.5,3.5h-2.55L11.47,28.48C10.82,29.13,9.93,29.5,9,29.5H5" fill="none" id="XMLID_584_" stroke="#263238" stroke-linecap="round" stroke-linejoin="round" stroke-miterlimit="10"/>
<polyline fill="none" id="XMLID_585_" points="    25,28.1 27.342,25.793 29.256,27.708 30.525,20.487 23.306,21.757 25.22,23.671 19.4,29.5   " stroke="#263238" stroke-linecap="round" stroke-linejoin="round" stroke-miterlimit="10"/>
</g>
</g>
</svg>